<svg width="500" height="500" viewBox="0 0 500 500" fill="none" xmlns="http://www.w3.org/2000/svg">
<g clip-path="url(#clip0_21420_356)">
<mask id="mask0_21420_356" style="mask-type:luminance" maskUnits="userSpaceOnUse" x="0" y="0" width="500" height="500">
<path d="M375 0H125C55.9644 0 0 55.9644 0 125V375C0 444.036 55.9644 500 125 500H375C444.036 500 500 444.036 500 375V125C500 55.9644 444.036 0 375 0Z" fill="white"/>
</mask>
<g mask="url(#mask0_21420_356)">
<path d="M375 0H125C55.9644 0 0 55.9644 0 125V375C0 444.036 55.9644 500 125 500H375C444.036 500 500 444.036 500 375V125C500 55.9644 444.036 0 375 0Z" fill="#079669"/>
<path d="M375 0H125C55.9644 0 0 55.9644 0 125V375C0 444.036 55.9644 500 125 500H375C444.036 500 500 444.036 500 375V125C500 55.9644 444.036 0 375 0Z" fill="url(#paint0_linear_21420_356)" fill-opacity="0.3"/>
<path d="M375 23.4375H125C68.9086 23.4375 23.4375 68.9086 23.4375 125V375C23.4375 431.091 68.9086 476.562 125 476.562H375C431.091 476.562 476.562 431.091 476.562 375V125C476.562 68.9086 431.091 23.4375 375 23.4375Z" stroke="#079669" stroke-width="3"/>
<path d="M375 7.8125H125C60.2791 7.8125 7.8125 60.2791 7.8125 125V375C7.8125 439.721 60.2791 492.188 125 492.188H375C439.721 492.188 492.188 439.721 492.188 375V125C492.188 60.2791 439.721 7.8125 375 7.8125Z" stroke="url(#paint1_linear_21420_356)"/>
</g>
<path d="M253.476 139C274.753 139 292.66 146.156 307.196 160.469C321.732 174.781 329 192.356 329 213.193C329 234.03 321.732 251.605 307.196 265.917C292.66 280.23 274.753 287.386 253.476 287.386H214.608V360H171V139H253.476ZM253.476 246.659C262.745 246.659 270.435 243.501 276.544 237.187C282.653 230.662 285.708 222.664 285.708 213.193C285.708 203.511 282.653 195.513 276.544 189.199C270.435 182.884 262.745 179.727 253.476 179.727H214.608V246.659H253.476Z" fill="white"/>
</g>
<defs>
<linearGradient id="paint0_linear_21420_356" x1="250" y1="0" x2="250" y2="500" gradientUnits="userSpaceOnUse">
<stop stop-color="white"/>
<stop offset="1" stop-color="white" stop-opacity="0"/>
</linearGradient>
<linearGradient id="paint1_linear_21420_356" x1="250" y1="0" x2="250" y2="500" gradientUnits="userSpaceOnUse">
<stop stop-color="white" stop-opacity="0.6"/>
<stop offset="1" stop-color="white" stop-opacity="0.3"/>
</linearGradient>
<clipPath id="clip0_21420_356">
<rect width="500" height="500" fill="white"/>
</clipPath>
</defs>
</svg>
