<svg width="200" height="25" viewBox="0 0 200 25" fill="none" xmlns="http://www.w3.org/2000/svg">
<path d="M8.96158 1.00806C11.2735 1.00806 13.2192 1.76971 14.7986 3.29301C16.3781 4.81631 17.1678 6.68683 17.1678 8.90457C17.1678 11.1223 16.3781 12.9928 14.7986 14.5161C13.2192 16.0394 11.2735 16.8011 8.96158 16.8011H4.73831V24.5296H0V1.00806H8.96158ZM8.96158 12.4664C9.96875 12.4664 10.8043 12.1304 11.4681 11.4583C12.1319 10.7639 12.4638 9.91263 12.4638 8.90457C12.4638 7.8741 12.1319 7.02285 11.4681 6.35081C10.8043 5.67876 9.96875 5.34274 8.96158 5.34274H4.73831V12.4664H8.96158Z" fill="white"/>
<path d="M24.107 10.6183C24.5191 9.54301 25.1943 8.73656 26.1328 8.19892C27.0942 7.66129 28.1586 7.39247 29.326 7.39247V12.2312C27.9755 12.0744 26.7623 12.3432 25.6865 13.0376C24.6335 13.7321 24.107 14.8858 24.107 16.4987V24.5296H19.6778V7.7285H24.107V10.6183Z" fill="white"/>
<path d="M45.9064 22.4462C44.1438 24.1487 41.9921 25 39.4513 25C36.9104 25 34.7587 24.1487 32.9962 22.4462C31.2565 20.7213 30.3867 18.6156 30.3867 16.129C30.3867 13.6425 31.2565 11.5479 32.9962 9.84543C34.7587 8.12052 36.9104 7.25807 39.4513 7.25807C41.9921 7.25807 44.1438 8.12052 45.9064 9.84543C47.6689 11.5479 48.5502 13.6425 48.5502 16.129C48.5502 18.6156 47.6689 20.7213 45.9064 22.4462ZM36.1207 19.4556C37.0134 20.3293 38.1236 20.7661 39.4513 20.7661C40.7789 20.7661 41.8891 20.3293 42.7818 19.4556C43.6745 18.582 44.1209 17.4731 44.1209 16.129C44.1209 14.7849 43.6745 13.6761 42.7818 12.8024C41.8891 11.9288 40.7789 11.4919 39.4513 11.4919C38.1236 11.4919 37.0134 11.9288 36.1207 12.8024C35.2509 13.6761 34.816 14.7849 34.816 16.129C34.816 17.4731 35.2509 18.582 36.1207 19.4556Z" fill="white"/>
<path d="M59.838 25C57.2514 25 55.0883 24.1487 53.3486 22.4462C51.6318 20.7437 50.7734 18.638 50.7734 16.129C50.7734 13.6201 51.6318 11.5143 53.3486 9.81183C55.0883 8.10932 57.2514 7.25807 59.838 7.25807C61.509 7.25807 63.0312 7.65009 64.4046 8.43414C65.7781 9.21819 66.8196 10.2711 67.5292 11.5927L63.7179 13.7769C63.3746 13.0824 62.8481 12.5336 62.1385 12.1304C61.4518 11.7272 60.6735 11.5255 59.8037 11.5255C58.476 11.5255 57.3773 11.9624 56.5075 12.836C55.6376 13.6873 55.2027 14.7849 55.2027 16.129C55.2027 17.4507 55.6376 18.5484 56.5075 19.422C57.3773 20.2733 58.476 20.6989 59.8037 20.6989C60.6964 20.6989 61.4861 20.5085 62.1728 20.1277C62.8824 19.7245 63.4089 19.1756 63.7523 18.4812L67.5978 20.6317C66.8425 21.9534 65.7781 23.0175 64.4046 23.8239C63.0312 24.608 61.509 25 59.838 25Z" fill="white"/>
<path d="M73.4148 17.9099C74.0099 20.0157 75.6237 21.0685 78.2561 21.0685C79.95 21.0685 81.2318 20.5085 82.1017 19.3884L85.6725 21.4046C83.9787 23.8015 81.4836 25 78.1874 25C75.349 25 73.0714 24.1599 71.3546 22.4798C69.6378 20.7997 68.7795 18.6828 68.7795 16.129C68.7795 13.5977 69.6264 11.4919 71.3203 9.81183C73.0142 8.10932 75.1888 7.25807 77.844 7.25807C80.362 7.25807 82.4336 8.10932 84.0588 9.81183C85.7069 11.5143 86.5309 13.6201 86.5309 16.129C86.5309 16.6891 86.4737 17.2827 86.3593 17.9099H73.4148ZM73.3461 14.5497H82.1017C81.8499 13.4073 81.3234 12.556 80.5222 11.996C79.7439 11.4359 78.8512 11.1559 77.844 11.1559C76.6537 11.1559 75.6695 11.4583 74.8912 12.0632C74.1129 12.6456 73.5979 13.4745 73.3461 14.5497Z" fill="white"/>
<path d="M93.0383 12.5C93.0383 12.948 93.3359 13.3177 93.931 13.6089C94.5491 13.8777 95.293 14.1241 96.1629 14.3481C97.0327 14.5497 97.9025 14.8185 98.7724 15.1546C99.6422 15.4682 100.375 16.0058 100.97 16.7675C101.588 17.5291 101.897 18.4812 101.897 19.6237C101.897 21.3486 101.233 22.6815 99.9054 23.6223C98.6007 24.5408 96.964 25 94.9955 25C91.4703 25 89.0669 23.6671 87.785 21.0013L91.6306 18.8844C92.1342 20.3405 93.2558 21.0685 94.9955 21.0685C96.5749 21.0685 97.3646 20.5869 97.3646 19.6237C97.3646 19.1756 97.0556 18.8172 96.4375 18.5484C95.8424 18.2572 95.1099 17.9996 94.2401 17.7755C93.3702 17.5515 92.5004 17.2715 91.6306 16.9355C90.7607 16.5995 90.0168 16.073 89.3988 15.3562C88.8036 14.6169 88.506 13.6985 88.506 12.6008C88.506 10.9431 89.1241 9.64382 90.3602 8.70296C91.6191 7.7397 93.1757 7.25807 95.0298 7.25807C96.4261 7.25807 97.6965 7.57168 98.841 8.19892C99.9856 8.80376 100.89 9.67742 101.554 10.8199L97.7766 12.836C97.2273 11.6935 96.3116 11.1223 95.0298 11.1223C94.4575 11.1223 93.9768 11.2455 93.5877 11.4919C93.2214 11.7384 93.0383 12.0744 93.0383 12.5Z" fill="white"/>
<path d="M107.926 12.5C107.926 12.948 108.224 13.3177 108.819 13.6089C109.437 13.8777 110.181 14.1241 111.051 14.3481C111.92 14.5497 112.79 14.8185 113.66 15.1546C114.53 15.4682 115.262 16.0058 115.858 16.7675C116.476 17.5291 116.785 18.4812 116.785 19.6237C116.785 21.3486 116.121 22.6815 114.793 23.6223C113.488 24.5408 111.852 25 109.883 25C106.358 25 103.955 23.6671 102.673 21.0013L106.518 18.8844C107.022 20.3405 108.143 21.0685 109.883 21.0685C111.463 21.0685 112.252 20.5869 112.252 19.6237C112.252 19.1756 111.943 18.8172 111.325 18.5484C110.73 18.2572 109.998 17.9996 109.128 17.7755C108.258 17.5515 107.388 17.2715 106.518 16.9355C105.648 16.5995 104.904 16.073 104.286 15.3562C103.691 14.6169 103.394 13.6985 103.394 12.6008C103.394 10.9431 104.012 9.64382 105.248 8.70296C106.507 7.7397 108.063 7.25807 109.917 7.25807C111.314 7.25807 112.584 7.57168 113.729 8.19892C114.873 8.80376 115.777 9.67742 116.441 10.8199L112.664 12.836C112.115 11.6935 111.199 11.1223 109.917 11.1223C109.345 11.1223 108.865 11.2455 108.475 11.4919C108.109 11.7384 107.926 12.0744 107.926 12.5Z" fill="white"/>
<path d="M131.406 25C127.789 25 124.802 23.8239 122.445 21.4718C120.087 19.1196 118.908 16.2186 118.908 12.7688C118.908 9.2966 120.087 6.39561 122.445 4.06586C124.802 1.71371 127.789 0.537633 131.406 0.537633C133.581 0.537633 135.584 1.04167 137.415 2.04973C139.269 3.03539 140.711 4.37948 141.741 6.08199L137.655 8.40054C137.06 7.34767 136.213 6.53002 135.114 5.94758C134.016 5.34274 132.78 5.04032 131.406 5.04032C129.071 5.04032 127.183 5.75717 125.741 7.19086C124.322 8.62455 123.612 10.4839 123.612 12.7688C123.612 15.0314 124.322 16.8795 125.741 18.3132C127.183 19.7469 129.071 20.4637 131.406 20.4637C132.78 20.4637 134.016 20.1725 135.114 19.5901C136.236 18.9852 137.083 18.1676 137.655 17.1371L141.741 19.4556C140.711 21.1582 139.28 22.5134 137.449 23.5215C135.618 24.5072 133.604 25 131.406 25Z" fill="white"/>
<path d="M157.594 7.7285H162.023V24.5296H157.594V22.547C156.266 24.1823 154.401 25 151.997 25C149.708 25 147.74 24.1487 146.092 22.4462C144.466 20.7213 143.654 18.6156 143.654 16.129C143.654 13.6425 144.466 11.5479 146.092 9.84543C147.74 8.12052 149.708 7.25807 151.997 7.25807C154.401 7.25807 156.266 8.07572 157.594 9.71102V7.7285ZM149.422 19.5565C150.315 20.4301 151.448 20.8669 152.821 20.8669C154.195 20.8669 155.328 20.4301 156.221 19.5565C157.136 18.6604 157.594 17.5179 157.594 16.129C157.594 14.7401 157.136 13.6089 156.221 12.7352C155.328 11.8392 154.195 11.3911 152.821 11.3911C151.448 11.3911 150.315 11.8392 149.422 12.7352C148.529 13.6089 148.083 14.7401 148.083 16.129C148.083 17.5179 148.529 18.6604 149.422 19.5565Z" fill="white"/>
<path d="M166.04 24.5296V0H170.469V24.5296H166.04Z" fill="white"/>
<path d="M193.511 7.25807C195.479 7.25807 197.047 7.8853 198.215 9.13978C199.405 10.3943 200 12.0744 200 14.1801V24.5296H195.571V14.4825C195.571 13.4745 195.319 12.6904 194.815 12.1304C194.312 11.5703 193.602 11.2903 192.687 11.2903C191.679 11.2903 190.89 11.6151 190.317 12.2648C189.768 12.9144 189.493 13.8553 189.493 15.0874V24.5296H185.064V14.4825C185.064 13.4745 184.812 12.6904 184.309 12.1304C183.805 11.5703 183.095 11.2903 182.18 11.2903C181.196 11.2903 180.406 11.6151 179.811 12.2648C179.238 12.9144 178.952 13.8553 178.952 15.0874V24.5296H174.523V7.7285H178.952V9.50941C179.982 8.00851 181.573 7.25807 183.725 7.25807C185.831 7.25807 187.387 8.06452 188.395 9.67742C189.539 8.06452 191.244 7.25807 193.511 7.25807Z" fill="white"/>
</svg>
