<svg width="162" height="24" viewBox="0 0 162 24" fill="none" xmlns="http://www.w3.org/2000/svg">
<path d="M8.43208 0.600098C10.5867 0.600098 12.4001 1.32543 13.8721 2.7761C15.3441 4.22677 16.0801 6.0081 16.0801 8.1201C16.0801 10.2321 15.3441 12.0134 13.8721 13.4641C12.4001 14.9148 10.5867 15.6401 8.43208 15.6401H4.49608V23.0001H0.0800781V0.600098H8.43208ZM8.43208 11.5121C9.37075 11.5121 10.1494 11.1921 10.7681 10.5521C11.3867 9.89077 11.6961 9.0801 11.6961 8.1201C11.6961 7.13876 11.3867 6.3281 10.7681 5.6881C10.1494 5.0481 9.37075 4.7281 8.43208 4.7281H4.49608V11.5121H8.43208Z" fill="white"/>
<path d="M22.5473 9.7521C22.9313 8.7281 23.5607 7.9601 24.4353 7.4481C25.3313 6.9361 26.3233 6.6801 27.4113 6.6801V11.2881C26.1527 11.1388 25.022 11.3948 24.0193 12.0561C23.038 12.7174 22.5473 13.8161 22.5473 15.3521V23.0001H18.4193V7.0001H22.5473V9.7521Z" fill="white"/>
<path d="M42.8638 21.0161C41.2212 22.6374 39.2158 23.4481 36.8478 23.4481C34.4798 23.4481 32.4745 22.6374 30.8318 21.0161C29.2105 19.3734 28.3998 17.3681 28.3998 15.0001C28.3998 12.6321 29.2105 10.6374 30.8318 9.0161C32.4745 7.37343 34.4798 6.5521 36.8478 6.5521C39.2158 6.5521 41.2212 7.37343 42.8638 9.0161C44.5065 10.6374 45.3278 12.6321 45.3278 15.0001C45.3278 17.3681 44.5065 19.3734 42.8638 21.0161ZM33.7438 18.1681C34.5758 19.0001 35.6105 19.4161 36.8478 19.4161C38.0852 19.4161 39.1198 19.0001 39.9518 18.1681C40.7838 17.3361 41.1998 16.2801 41.1998 15.0001C41.1998 13.7201 40.7838 12.6641 39.9518 11.8321C39.1198 11.0001 38.0852 10.5841 36.8478 10.5841C35.6105 10.5841 34.5758 11.0001 33.7438 11.8321C32.9332 12.6641 32.5278 13.7201 32.5278 15.0001C32.5278 16.2801 32.9332 17.3361 33.7438 18.1681Z" fill="white"/>
<path d="M55.8478 23.4481C53.4372 23.4481 51.4212 22.6374 49.7998 21.0161C48.1998 19.3948 47.3998 17.3894 47.3998 15.0001C47.3998 12.6108 48.1998 10.6054 49.7998 8.9841C51.4212 7.36277 53.4372 6.5521 55.8478 6.5521C57.4052 6.5521 58.8238 6.92543 60.1038 7.6721C61.3838 8.41876 62.3545 9.42143 63.0158 10.6801L59.4638 12.7601C59.1438 12.0988 58.6532 11.5761 57.9918 11.1921C57.3518 10.8081 56.6265 10.6161 55.8158 10.6161C54.5785 10.6161 53.5545 11.0321 52.7438 11.8641C51.9332 12.6748 51.5278 13.7201 51.5278 15.0001C51.5278 16.2588 51.9332 17.3041 52.7438 18.1361C53.5545 18.9468 54.5785 19.3521 55.8158 19.3521C56.6478 19.3521 57.3838 19.1708 58.0238 18.8081C58.6852 18.4241 59.1758 17.9014 59.4958 17.2401L63.0798 19.2881C62.3758 20.5468 61.3838 21.5601 60.1038 22.3281C58.8238 23.0748 57.4052 23.4481 55.8478 23.4481Z" fill="white"/>
<path d="M68.5011 16.6961C69.0557 18.7014 70.5597 19.7041 73.0131 19.7041C74.5917 19.7041 75.7864 19.1708 76.5971 18.1041L79.9251 20.0241C78.3464 22.3068 76.0211 23.4481 72.9491 23.4481C70.3037 23.4481 68.1811 22.6481 66.5811 21.0481C64.9811 19.4481 64.1811 17.4321 64.1811 15.0001C64.1811 12.5894 64.9704 10.5841 66.5491 8.9841C68.1277 7.36277 70.1544 6.5521 72.6291 6.5521C74.9757 6.5521 76.9064 7.36277 78.4211 8.9841C79.9571 10.6054 80.7251 12.6108 80.7251 15.0001C80.7251 15.5334 80.6717 16.0988 80.5651 16.6961H68.5011ZM68.4371 13.4961H76.5971C76.3624 12.4081 75.8717 11.5974 75.1251 11.0641C74.3997 10.5308 73.5677 10.2641 72.6291 10.2641C71.5197 10.2641 70.6024 10.5521 69.8771 11.1281C69.1517 11.6828 68.6717 12.4721 68.4371 13.4961Z" fill="white"/>
<path d="M86.7898 11.5441C86.7898 11.9708 87.0672 12.3228 87.6218 12.6001C88.1978 12.8561 88.8912 13.0908 89.7018 13.3041C90.5125 13.4961 91.3232 13.7521 92.1338 14.0721C92.9445 14.3708 93.6272 14.8828 94.1818 15.6081C94.7578 16.3334 95.0458 17.2401 95.0458 18.3281C95.0458 19.9708 94.4272 21.2401 93.1898 22.1361C91.9738 23.0108 90.4485 23.4481 88.6138 23.4481C85.3285 23.4481 83.0885 22.1788 81.8938 19.6401L85.4778 17.6241C85.9472 19.0108 86.9925 19.7041 88.6138 19.7041C90.0858 19.7041 90.8218 19.2454 90.8218 18.3281C90.8218 17.9014 90.5338 17.5601 89.9578 17.3041C89.4032 17.0268 88.7205 16.7814 87.9098 16.5681C87.0992 16.3548 86.2885 16.0881 85.4778 15.7681C84.6672 15.4481 83.9738 14.9468 83.3978 14.2641C82.8432 13.5601 82.5658 12.6854 82.5658 11.6401C82.5658 10.0614 83.1418 8.8241 84.2938 7.9281C85.4672 7.01077 86.9178 6.5521 88.6458 6.5521C89.9472 6.5521 91.1312 6.85077 92.1978 7.4481C93.2645 8.0241 94.1072 8.8561 94.7258 9.9441L91.2058 11.8641C90.6938 10.7761 89.8405 10.2321 88.6458 10.2321C88.1125 10.2321 87.6645 10.3494 87.3018 10.5841C86.9605 10.8188 86.7898 11.1388 86.7898 11.5441Z" fill="white"/>
<path d="M100.665 11.5441C100.665 11.9708 100.942 12.3228 101.497 12.6001C102.073 12.8561 102.766 13.0908 103.577 13.3041C104.387 13.4961 105.198 13.7521 106.009 14.0721C106.819 14.3708 107.502 14.8828 108.057 15.6081C108.633 16.3334 108.921 17.2401 108.921 18.3281C108.921 19.9708 108.302 21.2401 107.065 22.1361C105.849 23.0108 104.323 23.4481 102.489 23.4481C99.2035 23.4481 96.9635 22.1788 95.7688 19.6401L99.3528 17.6241C99.8222 19.0108 100.867 19.7041 102.489 19.7041C103.961 19.7041 104.697 19.2454 104.697 18.3281C104.697 17.9014 104.409 17.5601 103.833 17.3041C103.278 17.0268 102.595 16.7814 101.785 16.5681C100.974 16.3548 100.163 16.0881 99.3528 15.7681C98.5422 15.4481 97.8488 14.9468 97.2728 14.2641C96.7182 13.5601 96.4408 12.6854 96.4408 11.6401C96.4408 10.0614 97.0168 8.8241 98.1688 7.9281C99.3422 7.01077 100.793 6.5521 102.521 6.5521C103.822 6.5521 105.006 6.85077 106.073 7.4481C107.139 8.0241 107.982 8.8561 108.601 9.9441L105.081 11.8641C104.569 10.7761 103.715 10.2321 102.521 10.2321C101.987 10.2321 101.539 10.3494 101.177 10.5841C100.835 10.8188 100.665 11.1388 100.665 11.5441Z" fill="white"/>
<path d="M116.628 18.7761H126.132V23.0001H110.996V19.4801L120.308 4.8241H111.22V0.600098H125.94V4.0881L116.628 18.7761Z" fill="white"/>
<path d="M131.72 16.6961C132.274 18.7014 133.778 19.7041 136.232 19.7041C137.81 19.7041 139.005 19.1708 139.816 18.1041L143.144 20.0241C141.565 22.3068 139.24 23.4481 136.168 23.4481C133.522 23.4481 131.4 22.6481 129.8 21.0481C128.2 19.4481 127.4 17.4321 127.4 15.0001C127.4 12.5894 128.189 10.5841 129.768 8.9841C131.346 7.36277 133.373 6.5521 135.848 6.5521C138.194 6.5521 140.125 7.36277 141.64 8.9841C143.176 10.6054 143.944 12.6108 143.944 15.0001C143.944 15.5334 143.89 16.0988 143.784 16.6961H131.72ZM131.656 13.4961H139.816C139.581 12.4081 139.09 11.5974 138.344 11.0641C137.618 10.5308 136.786 10.2641 135.848 10.2641C134.738 10.2641 133.821 10.5521 133.096 11.1281C132.37 11.6828 131.89 12.4721 131.656 13.4961Z" fill="white"/>
<path d="M155.722 6.5521C157.471 6.5521 158.911 7.13877 160.042 8.3121C161.194 9.48543 161.77 11.1068 161.77 13.1761V23.0001H157.642V13.6881C157.642 12.6214 157.354 11.8108 156.778 11.2561C156.202 10.6801 155.434 10.3921 154.474 10.3921C153.407 10.3921 152.554 10.7228 151.914 11.3841C151.274 12.0454 150.954 13.0374 150.954 14.3601V23.0001H146.826V7.0001H150.954V8.7921C151.956 7.29877 153.546 6.5521 155.722 6.5521Z" fill="white"/>
</svg>
